<?xml version="1.0" encoding="UTF-8" standalone="no"?>
<svg
   xmlns:dc="http://purl.org/dc/elements/1.1/"
   xmlns:cc="http://creativecommons.org/ns#"
   xmlns:rdf="http://www.w3.org/1999/02/22-rdf-syntax-ns#"
   xmlns="http://www.w3.org/2000/svg"
   viewBox="0 0 77.3 23"
   height="23"
   width="77.3"
   xml:space="preserve"
   id="svg2"
   version="1.1"><metadata
     id="metadata8"><rdf:RDF><cc:Work
         rdf:about=""><dc:format>image/svg+xml</dc:format><dc:type
           rdf:resource="https://github.com/rugpanov/simple-static-analyzer" /></cc:Work></rdf:RDF></metadata><defs
     id="defs6" /><g
     transform="matrix(1.3333333,0,0,-1.3333333,0,23)"
     id="g10"><g
       transform="scale(0.02)"
       id="g12"><path
         id="path14"
         style="fill:#2f4ba6;fill-opacity:1;fill-rule:nonzero;stroke:none"
         d="M 2461.05,0 H 436.809 C 196.563,0 0,196.563 0,436.809 v 0 C 0,677.055 196.563,873.617 436.809,873.617 H 2461.05 c 240.25,0 436.81,-196.562 436.81,-436.808 v 0 C 2897.86,196.563 2701.3,0 2461.05,0" /><path
         id="path16"
         style="fill:#ffffff;fill-opacity:1;fill-rule:nonzero;stroke:none"
         d="m 653.316,485.918 c 5.172,0 9.239,1.566 12.196,4.711 2.961,3.141 4.437,7.207 4.437,12.195 V 660 c 0,4.988 -1.476,9.098 -4.437,12.332 -2.957,3.234 -7.024,4.856 -12.196,4.856 -5.363,0 -9.468,-1.622 -12.339,-4.856 -2.86,-3.234 -4.293,-7.344 -4.293,-12.332 V 502.824 c 0,-4.988 1.433,-9.054 4.293,-12.195 2.871,-3.145 6.976,-4.711 12.339,-4.711" /><path
         id="path18"
         style="fill:#ffffff;fill-opacity:1;fill-rule:nonzero;stroke:none"
         d="m 878.813,651.68 c 2.859,2.773 4.292,6.383 4.292,10.812 0,4.621 -1.433,8.227 -4.292,10.817 -2.872,2.582 -6.793,3.879 -11.786,3.879 h -131.39 c -4.809,0 -8.645,-1.297 -11.512,-3.879 -2.859,-2.59 -4.297,-6.196 -4.297,-10.817 0,-4.429 1.438,-8.039 4.297,-10.812 2.867,-2.77 6.703,-4.153 11.512,-4.153 h 49.062 V 502.824 c 0,-4.988 1.434,-9.054 4.293,-12.195 2.863,-3.145 6.981,-4.711 12.336,-4.711 5.363,0 9.473,1.566 12.332,4.711 2.871,3.141 4.305,7.207 4.305,12.195 v 144.703 h 49.062 c 4.993,0 8.914,1.383 11.786,4.153" /><path
         id="path20"
         style="fill:#ffffff;fill-opacity:1;fill-rule:nonzero;stroke:none"
         d="m 1080.74,490.629 c 2.95,-3.145 7.02,-4.711 12.2,-4.711 5.35,0 9.47,1.566 12.33,4.711 2.87,3.141 4.29,7.207 4.29,12.195 V 660 c 0,5.176 -1.34,9.336 -4.01,12.477 -2.68,3.14 -6.52,4.711 -11.5,4.711 -6.47,0 -11.93,-3.512 -16.36,-10.536 l -55.44,-89.535 -56.551,89.258 c -4.437,7.203 -10.168,10.813 -17.187,10.813 -4.617,0 -8.36,-1.434 -11.231,-4.297 -2.859,-2.868 -4.293,-7.254 -4.293,-13.172 V 502.824 c 0,-11.273 5.176,-16.906 15.524,-16.906 10.347,0 15.523,5.633 15.523,16.906 v 111.438 l 41.025,-64.309 c 4.07,-6.469 9.24,-9.703 15.53,-9.703 6.09,0 11.18,3.32 15.24,9.977 l 40.48,65.418 V 502.824 c 0,-4.988 1.47,-9.054 4.43,-12.195" /><path
         id="path22"
         style="fill:#ffffff;fill-opacity:1;fill-rule:nonzero;stroke:none"
         d="m 1303.17,532.066 c -9.7,-12.843 -23.61,-19.257 -41.72,-19.257 -17.92,0 -31.73,6.414 -41.44,19.257 -9.7,12.844 -14.55,29.34 -14.55,49.485 0,20.14 4.85,36.633 14.55,49.484 9.71,12.844 23.52,19.262 41.44,19.262 18.11,0 32.02,-6.418 41.72,-19.262 9.71,-12.851 14.56,-29.344 14.56,-49.484 0,-20.145 -4.85,-36.641 -14.56,-49.485 z m -41.72,147.891 c -29.01,0 -51.42,-9.238 -67.22,-27.719 -15.8,-18.476 -23.7,-42.043 -23.7,-70.687 0,-28.828 7.9,-52.438 23.7,-70.824 15.8,-18.387 38.21,-27.586 67.22,-27.586 29.02,0 51.47,9.199 67.36,27.586 15.9,18.386 23.85,41.996 23.85,70.824 0,28.644 -7.95,52.211 -23.85,70.687 -15.89,18.481 -38.34,27.719 -67.36,27.719" /><path
         id="path24"
         style="fill:#ffffff;fill-opacity:1;fill-rule:nonzero;stroke:none"
         d="m 861.992,601.398 c 0,2.524 -0.285,4.446 -0.859,5.766 -0.457,1.375 -1.461,3.27 -3.012,5.68 -0.344,0.515 -1.316,1.605 -2.926,3.269 -0.804,0.801 -1.578,1.59 -2.324,2.364 -0.742,0.777 -1.488,1.48 -2.234,2.113 -1.492,1.316 -2.524,1.976 -3.098,1.976 -0.922,0 -2.41,-0.461 -4.476,-1.375 -2.18,-0.863 -3.383,-1.636 -3.614,-2.328 -0.117,-0.57 -0.172,-1.402 -0.172,-2.492 0,-0.344 0.016,-0.789 0.043,-1.336 0.028,-0.543 0.071,-1.101 0.129,-1.676 0.059,-0.574 0.102,-1.148 0.129,-1.722 0.027,-0.574 0.043,-1.032 0.043,-1.375 0,-0.461 1.031,-1.578 3.098,-3.356 2.008,-1.722 3.73,-3.5 5.164,-5.336 1.433,-1.605 2.148,-3.414 2.148,-5.422 0,-2.007 -0.14,-3.843 -0.429,-5.507 -0.286,-1.664 -0.747,-3.227 -1.375,-4.692 -0.633,-1.461 -1.465,-2.867 -2.497,-4.215 -1.031,-1.347 -2.324,-2.711 -3.871,-4.086 -0.461,-0.343 -0.89,-0.82 -1.293,-1.421 -0.402,-0.602 -0.773,-1.247 -1.117,-1.934 -0.344,-0.691 -0.617,-1.395 -0.816,-2.109 -0.203,-0.719 -0.305,-1.364 -0.305,-1.938 0,-1.605 0.633,-2.926 1.895,-3.957 1.261,-1.031 2.754,-1.551 4.476,-1.551 3.211,0 6.078,2.297 8.606,6.887 2.582,4.531 4.644,9.809 6.195,15.832 1.605,6.078 2.438,10.727 2.492,13.941" /><path
         id="path26"
         style="fill:#ffffff;fill-opacity:1;fill-rule:nonzero;stroke:none"
         d="m 876.309,561.211 c -1.637,-1.895 -3.141,-3.816 -4.52,-5.766 -0.859,-1.203 -1.676,-2.539 -2.453,-4 -0.773,-1.465 -1.461,-2.968 -2.063,-4.519 -0.601,-1.547 -1.089,-3.125 -1.464,-4.731 -0.371,-1.609 -0.559,-3.129 -0.559,-4.562 0,-2.867 0.719,-5.481 2.152,-7.832 1.434,-2.352 3.239,-4.574 5.422,-6.668 2.18,-2.094 4.531,-4.074 7.055,-5.938 2.523,-1.863 4.875,-3.73 7.059,-5.593 2.175,-1.864 3.984,-3.77 5.417,-5.723 1.434,-1.949 2.153,-4.043 2.153,-6.281 0,-1.778 -0.473,-3.801 -1.422,-6.067 -0.945,-2.265 -2.566,-4.316 -4.859,-6.152 -0.805,-0.633 -1.664,-1.191 -2.582,-1.68 -0.918,-0.484 -1.809,-0.886 -2.668,-1.203 -0.86,-0.316 -1.664,-0.558 -2.411,-0.73 -0.746,-0.172 -1.32,-0.258 -1.718,-0.258 -0.344,0 -0.789,-0.016 -1.336,-0.043 -0.543,-0.031 -1.09,-0.059 -1.633,-0.086 -0.547,-0.031 -1.051,-0.086 -1.508,-0.176 -0.457,-0.086 -0.773,-0.156 -0.945,-0.215 -1.492,-0.8 -2.641,-1.761 -3.442,-2.883 -0.804,-1.117 -1.207,-2.738 -1.207,-4.859 0,-2.297 0.461,-4.074 1.375,-5.336 0.922,-1.262 2.817,-1.894 5.684,-1.894 2.062,0 4.332,0.418 6.797,1.25 2.465,0.832 4.918,2.007 7.355,3.527 2.442,1.52 4.793,3.328 7.059,5.422 2.266,2.094 4.273,4.375 6.023,6.84 1.75,2.468 3.141,5.09 4.172,7.875 1.035,2.781 1.551,5.636 1.551,8.562 0,1.949 -0.344,3.813 -1.031,5.594 -0.692,1.777 -1.61,3.484 -2.754,5.117 -1.149,1.637 -2.453,3.215 -3.918,4.735 -1.461,1.519 -2.996,3.027 -4.602,4.515 -1.722,1.551 -3.457,3.043 -5.207,4.477 -1.75,1.433 -3.472,2.898 -5.164,4.386 -1.691,1.493 -3.312,3.043 -4.859,4.649 -1.551,1.605 -2.985,3.387 -4.305,5.336 1.777,1.949 3.699,3.859 5.766,5.722 2.062,1.864 4.472,4.118 7.226,6.754 1.782,1.778 3.313,3.731 4.606,5.852 1.289,2.125 1.937,3.988 1.937,5.594 0,4.59 -1.953,6.882 -5.851,6.882 -1.379,0 -2.867,-0.445 -4.477,-1.332 -1.605,-0.89 -3.238,-2.066 -4.902,-3.527 -1.664,-1.465 -3.317,-3.141 -4.949,-5.035" /><path
         id="path28"
         style="fill:#ffffff;fill-opacity:1;fill-rule:nonzero;stroke:none"
         d="m 1379.41,538.879 c 0.12,-1.117 0.26,-2.149 0.43,-3.098 0.17,-0.945 0.31,-2.019 0.43,-3.222 0.12,-1.207 0.22,-2.672 0.3,-4.391 0.09,-1.723 0.13,-3.902 0.13,-6.539 0,-1.094 -0.03,-2.484 -0.09,-4.176 -0.05,-1.691 -0.12,-3.543 -0.21,-5.551 -0.09,-2.007 -0.19,-4.086 -0.3,-6.238 -0.12,-2.152 -0.22,-4.23 -0.3,-6.238 -0.09,-2.008 -0.16,-3.86 -0.22,-5.551 -0.05,-1.691 -0.08,-3.082 -0.08,-4.172 0,-1.031 0.04,-2.437 0.13,-4.219 0.08,-1.777 0.32,-3.543 0.73,-5.293 0.4,-1.746 1.01,-3.265 1.85,-4.558 0.83,-1.293 1.99,-1.938 3.48,-1.938 1.03,0 1.88,0.102 2.54,0.301 0.66,0.203 1.25,0.477 1.76,0.82 0.52,0.344 1.01,0.774 1.47,1.289 0.45,0.516 1,1.118 1.63,1.809 0.86,5.219 1.89,10.141 3.1,14.758 1.2,4.617 2.67,8.992 4.39,13.121 1.72,4.133 3.77,8.047 6.15,11.746 2.38,3.699 5.24,7.242 8.56,10.629 4.25,4.301 8.34,7.527 12.27,9.68 3.92,2.152 7.75,3.8 11.48,4.949 1.55,0.516 3.12,0.988 4.69,1.418 1.58,0.43 3,0.902 4.26,1.422 1.26,0.515 2.28,1.074 3.06,1.676 0.77,0.605 1.16,1.335 1.16,2.195 0,1.32 -0.39,2.426 -1.16,3.312 -0.78,0.891 -1.74,1.621 -2.88,2.196 -1.15,0.574 -2.39,0.976 -3.71,1.207 -1.31,0.226 -2.49,0.34 -3.52,0.34 -5.28,0 -10.24,-1.247 -14.89,-3.743 -4.65,-2.496 -8.96,-5.707 -12.95,-9.636 -3.99,-3.93 -7.6,-8.305 -10.84,-13.125 -3.24,-4.817 -6.1,-9.579 -8.57,-14.286 -0.05,1.954 0.03,4.375 0.26,7.274 0.23,2.898 0.5,5.91 0.82,9.035 0.32,3.129 0.62,6.195 0.9,9.207 0.29,3.012 0.43,5.609 0.43,7.789 0,1.09 -0.2,2.164 -0.6,3.227 -0.4,1.062 -0.97,1.992 -1.72,2.797 -0.74,0.804 -1.63,1.461 -2.67,1.98 -1.03,0.516 -2.15,0.773 -3.35,0.773 -1.04,0 -2.08,-0.246 -3.14,-0.73 -1.07,-0.488 -2.01,-1.148 -2.84,-1.98 -0.84,-0.832 -1.51,-1.809 -2.03,-2.926 -0.51,-1.117 -0.77,-2.281 -0.77,-3.485 0,-2.41 0.04,-4.375 0.13,-5.894 0.08,-1.52 0.18,-2.84 0.3,-3.961" /><path
         id="path30"
         style="fill:#ffffff;fill-opacity:1;fill-rule:nonzero;stroke:none"
         d="m 1475.44,544.773 c 1.73,4.418 3.73,8.235 6.03,11.45 2.29,3.211 4.76,5.718 7.4,7.527 2.64,1.809 5.22,2.711 7.74,2.711 0.4,0 0.88,-0.102 1.42,-0.301 0.55,-0.203 1.06,-0.472 1.55,-0.816 0.49,-0.348 0.9,-0.778 1.25,-1.293 0.34,-0.516 0.51,-1.09 0.51,-1.723 0,-1.547 -0.19,-3.023 -0.6,-4.43 -0.4,-1.406 -1.1,-2.839 -2.1,-4.304 -1.01,-1.461 -2.37,-3.067 -4.09,-4.817 -1.72,-1.75 -3.9,-3.746 -6.54,-5.98 -1.21,-1.031 -2.57,-2.152 -4.09,-3.359 -1.52,-1.204 -3.04,-2.391 -4.56,-3.571 -1.52,-1.176 -2.94,-2.25 -4.26,-3.222 -1.32,-0.977 -2.38,-1.723 -3.19,-2.243 0.64,5.164 1.81,9.953 3.53,14.371 z m 64.03,-14.371 c -1.1,0 -2.56,-1.004 -4.39,-3.007 -3.27,-3.672 -6.79,-7.086 -10.54,-10.243 -3.76,-3.156 -7.63,-5.879 -11.62,-8.175 -3.99,-2.293 -8.06,-4.086 -12.22,-5.379 -4.16,-1.289 -8.25,-1.934 -12.26,-1.934 -3.16,0 -5.75,0.516 -7.79,1.551 -2.04,1.031 -3.66,2.336 -4.86,3.914 -1.21,1.574 -2.04,3.312 -2.5,5.207 -0.46,1.891 -0.69,3.699 -0.69,5.418 0,0.805 0.41,1.476 1.21,2.023 0.8,0.543 1.61,1.047 2.41,1.504 5.91,3.617 11.27,7.242 16.09,10.887 4.82,3.645 8.95,7.285 12.39,10.93 3.44,3.64 6.11,7.257 8,10.843 1.9,3.582 2.84,7.125 2.84,10.625 0,1.664 -0.33,3.356 -0.99,5.079 -0.66,1.718 -1.62,3.269 -2.88,4.648 -1.26,1.375 -2.81,2.508 -4.64,3.398 -1.84,0.887 -3.91,1.332 -6.2,1.332 -3.21,0 -6.18,-0.46 -8.91,-1.375 -2.72,-0.918 -5.23,-2.109 -7.53,-3.574 -2.29,-1.461 -4.39,-3.109 -6.28,-4.945 -1.89,-1.836 -3.61,-3.645 -5.16,-5.422 -2.47,-2.926 -4.63,-6.082 -6.5,-9.465 -1.86,-3.387 -3.41,-6.887 -4.65,-10.5 -1.23,-3.613 -2.16,-7.269 -2.79,-10.972 -0.63,-3.7 -0.95,-7.329 -0.95,-10.883 0,-11.188 2.47,-19.676 7.4,-25.473 4.94,-5.797 11.9,-8.691 20.91,-8.691 3.85,0 7.83,0.601 11.96,1.808 4.13,1.203 8.21,2.852 12.22,4.946 4.02,2.093 7.92,4.562 11.71,7.402 3.78,2.84 7.25,5.922 10.41,9.25 2.75,2.926 4.87,5.562 6.37,7.918 1.49,2.351 2.23,4.531 2.23,6.539 0,1.723 -0.14,2.953 -0.43,3.699 -0.28,0.746 -0.74,1.117 -1.37,1.117" /><path
         id="path32"
         style="fill:#ffffff;fill-opacity:1;fill-rule:nonzero;stroke:none"
         d="m 1885.7,559.188 c -0.15,-1.004 -0.32,-2.094 -0.52,-3.27 -0.2,-1.176 -0.42,-2.352 -0.65,-3.527 -0.23,-1.176 -0.43,-2.196 -0.6,-3.055 -0.63,-2.813 -1.82,-5.938 -3.57,-9.379 -1.75,-3.441 -3.81,-6.941 -6.2,-10.5 -2.38,-3.555 -4.96,-7.012 -7.74,-10.367 -2.78,-3.36 -5.51,-6.34 -8.18,-8.949 -2.66,-2.614 -5.14,-4.707 -7.44,-6.286 -2.29,-1.574 -4.16,-2.363 -5.59,-2.363 -1.38,0 -2.71,0.457 -4,1.375 -1.29,0.918 -1.94,2.266 -1.94,4.047 0,2.981 0.36,5.82 1.08,8.516 0.71,2.699 1.6,5.238 2.66,7.617 1.07,2.383 2.18,4.562 3.36,6.539 1.18,1.98 2.25,3.801 3.23,5.465 3.21,5.508 6.31,10.183 9.29,14.027 2.98,3.844 5.82,6.985 8.52,9.422 2.7,2.438 5.25,4.246 7.66,5.422 2.41,1.176 4.67,1.879 6.8,2.109 h 0.17 c 0.57,0 1.1,-0.215 1.59,-0.644 0.49,-0.434 0.9,-0.918 1.25,-1.465 0.34,-0.547 0.6,-1.074 0.77,-1.594 0.17,-0.515 0.26,-0.832 0.26,-0.832 0,-0.57 -0.07,-1.305 -0.21,-2.308 z m 154.59,-69.442 c 3.96,1.402 7.27,3.156 9.94,5.246 2.67,2.098 4.69,4.348 6.06,6.758 1.38,2.41 2.07,4.617 2.07,6.625 l -0.86,3.527 c -0.29,0 -0.66,-0.14 -1.12,-0.429 -0.46,-0.285 -0.92,-0.575 -1.38,-0.86 -0.57,-0.402 -1.15,-0.832 -1.72,-1.293 -2.35,-1.718 -4.46,-3.152 -6.32,-4.3 -1.87,-1.149 -3.7,-2.094 -5.51,-2.84 -1.81,-0.746 -3.7,-1.278 -5.68,-1.59 -1.98,-0.317 -4.26,-0.477 -6.84,-0.477 -4.02,0 -7.4,0.832 -10.15,2.496 -2.76,1.664 -4.97,4 -6.63,7.012 -1.67,3.016 -2.87,6.598 -3.62,10.758 -0.74,4.16 -1.11,8.734 -1.11,13.726 0,0.458 0.07,1.29 0.21,2.497 0.14,1.203 0.3,2.48 0.47,3.828 0.18,1.347 0.35,2.609 0.52,3.785 0.17,1.176 0.26,1.996 0.26,2.453 0,0.461 0.01,0.934 0.04,1.418 0.03,0.488 0.04,0.965 0.04,1.422 0,1.148 -0.22,2.125 -0.68,2.926 -0.46,0.804 -1.52,1.203 -3.19,1.203 -2.41,0 -4.67,-0.387 -6.8,-1.16 -2.12,-0.774 -4.13,-1.848 -6.02,-3.227 -1.89,-1.379 -3.73,-3.012 -5.51,-4.906 -1.78,-1.891 -3.53,-3.989 -5.25,-6.281 -1.32,-1.719 -3.11,-3.86 -5.37,-6.411 -2.27,-2.554 -4.64,-5.191 -7.1,-7.918 -2.47,-2.722 -4.85,-5.363 -7.15,-7.918 -2.29,-2.55 -4.07,-4.687 -5.33,-6.41 0.29,2.356 0.47,4.364 0.56,6.024 0.08,1.664 0.23,3.457 0.43,5.379 0.2,1.921 0.51,4.218 0.95,6.886 0.43,2.664 1.13,6.207 2.1,10.625 0.46,2.125 0.91,4.246 1.34,6.368 0.43,2.125 0.8,4.046 1.12,5.765 0.31,1.723 0.56,3.141 0.73,4.262 0.17,1.117 0.26,1.762 0.26,1.762 0,0.804 0.05,1.535 0.17,2.367 0.11,0.832 0.17,1.679 0.17,2.539 0,0.746 -0.07,1.476 -0.22,2.195 -0.14,0.715 -0.44,1.363 -0.9,1.938 -0.46,0.574 -1.09,1.031 -1.89,1.375 -0.81,0.343 -1.84,0.515 -3.1,0.515 -1.72,0 -3.2,-0.371 -4.43,-1.117 -1.23,-0.746 -2.27,-1.734 -3.1,-2.969 -0.83,-1.234 -1.45,-2.652 -1.85,-4.261 -0.4,-1.606 -0.6,-3.27 -0.6,-4.993 0,-0.433 -0.05,-0.828 -0.05,-1.261 -5.14,-5.145 -10.18,-10.317 -15.1,-15.516 -5.05,-5.336 -10.38,-10.238 -16,-14.715 -2.53,-2.008 -4.76,-3.57 -6.72,-4.691 -1.94,-1.117 -3.9,-1.676 -5.85,-1.676 -1.6,0 -3.01,0.801 -4.21,2.41 -1.21,1.606 -2.2,3.598 -2.97,5.981 -0.78,2.379 -1.35,4.886 -1.72,7.527 -0.38,2.641 -0.56,4.992 -0.56,7.059 0,3.152 0.24,5.949 0.73,8.386 0.49,2.442 1.02,4.621 1.59,6.543 0.58,1.922 1.11,3.614 1.59,5.075 0.49,1.464 0.74,2.796 0.74,4.003 0,0.575 -0.31,1.176 -0.91,1.805 -0.6,0.633 -1.3,1.277 -2.11,1.938 -0.8,0.66 -1.58,1.304 -2.32,1.933 -0.75,0.633 -1.23,1.207 -1.46,1.723 -0.4,0.805 -0.81,1.594 -1.21,2.367 -0.4,0.773 -0.86,1.477 -1.37,2.109 -0.52,0.629 -1.14,1.149 -1.86,1.547 -0.71,0.403 -1.56,0.606 -2.53,0.606 -5.22,0 -10.31,-1.02 -15.28,-3.059 -4.96,-2.035 -9.71,-5.207 -14.24,-9.508 -3.9,-3.726 -7.66,-8.187 -11.27,-13.379 -3.36,-4.828 -6.33,-9.863 -8.97,-15.062 -0.38,-0.348 -0.69,-0.613 -1.1,-0.988 -2.81,-2.637 -5.28,-4.961 -7.4,-6.969 -2.12,-2.008 -4.26,-3.844 -6.41,-5.508 -2.15,-1.664 -4.48,-3.269 -6.97,-4.82 -2.5,-1.547 -5.47,-3.153 -8.91,-4.817 -6.48,-3.156 -13.25,-4.734 -20.31,-4.734 -1.54,0 -2.82,0.805 -3.83,2.41 -1,1.606 -1.82,3.672 -2.45,6.195 -0.63,2.524 -1.14,5.336 -1.55,8.434 -0.4,3.098 -0.77,6.109 -1.12,9.035 -0.4,3.442 -0.86,6.711 -1.37,9.809 -0.52,3.097 -1.35,6.195 -2.5,9.293 -0.28,0.804 -0.71,1.508 -1.29,2.109 -0.57,0.606 -1.19,1.121 -1.85,1.551 -0.66,0.43 -1.32,0.758 -1.98,0.988 -0.66,0.231 -1.19,0.344 -1.59,0.344 -2.18,0 -4.47,-0.516 -6.88,-1.547 -2.41,-1.035 -4.81,-2.355 -7.19,-3.961 -2.38,-1.605 -4.66,-3.383 -6.84,-5.332 -2.18,-1.953 -4.16,-3.816 -5.94,-5.594 -1.38,-1.437 -2.79,-2.984 -4.26,-4.648 -1.46,-1.664 -2.9,-3.328 -4.3,-4.992 -1.41,-1.664 -2.75,-3.313 -4.04,-4.946 -1.3,-1.636 -2.49,-3.144 -3.58,-4.519 -1.09,-1.375 -2.19,-2.883 -3.31,-4.52 -1.12,-1.632 -2.19,-3.195 -3.23,-4.687 -1.03,-1.492 -1.95,-2.867 -2.75,-4.129 -0.8,-1.266 -1.46,-2.211 -1.98,-2.844 h -0.34 c -0.29,0 -0.62,0.231 -0.99,0.692 -0.38,0.457 -0.56,0.859 -0.56,1.203 0,2.297 0.26,5.062 0.77,8.304 0.52,3.243 0.98,6.985 1.38,11.231 0.23,2.809 0.46,5.434 0.69,7.875 0.23,2.437 0.47,4.848 0.73,7.226 0.26,2.379 0.52,4.778 0.77,7.188 0.26,2.406 0.48,4.988 0.65,7.742 0.17,2.41 0.37,5.149 0.6,8.219 0.23,3.066 0.5,6.18 0.82,9.336 0.32,3.152 0.64,6.254 0.99,9.293 0.34,3.043 0.74,5.738 1.2,8.09 0.12,0.629 0.33,1.562 0.65,2.797 0.31,1.234 0.64,2.523 0.99,3.871 0.34,1.347 0.64,2.652 0.9,3.914 0.26,1.265 0.39,2.269 0.39,3.015 0,2.352 -0.68,4.188 -2.02,5.504 -1.35,1.321 -2.86,1.981 -4.52,1.981 -0.8,0 -1.59,-0.188 -2.37,-0.559 -0.77,-0.375 -1.49,-0.816 -2.15,-1.336 -0.66,-0.515 -1.24,-1.09 -1.76,-1.719 -0.52,-0.632 -0.89,-1.207 -1.12,-1.722 -0.75,-1.606 -1.36,-3.082 -1.85,-4.43 -0.49,-1.348 -0.86,-2.699 -1.12,-4.047 -0.26,-1.347 -0.46,-2.711 -0.6,-4.086 -0.15,-1.379 -0.25,-2.871 -0.3,-4.472 -0.06,-1.438 -0.13,-3.2 -0.22,-5.293 -0.08,-2.094 -0.18,-4.332 -0.3,-6.711 -0.01,-0.153 -0.01,-0.313 -0.02,-0.465 l -0.02,-0.008 c -1.35,-0.75 -2.9,-1.582 -4.65,-2.496 -1.75,-0.918 -3.66,-1.867 -5.72,-2.844 -2.12,-0.972 -4.62,-1.863 -7.49,-2.668 -2.87,-0.801 -5.85,-1.531 -8.95,-2.191 -3.1,-0.66 -6.17,-1.25 -9.2,-1.766 -3.05,-0.515 -5.81,-0.945 -8.31,-1.289 -2.5,-0.344 -4.55,-0.601 -6.15,-0.773 -1.61,-0.172 -2.53,-0.262 -2.76,-0.262 -0.8,0.059 -1.37,0.316 -1.72,0.777 -0.34,0.457 -0.51,1.348 -0.51,2.664 0,0.746 0.07,1.594 0.21,2.539 0.14,0.95 0.37,2.196 0.69,3.747 0.32,1.546 0.75,3.468 1.29,5.765 0.55,2.293 1.22,5.192 2.02,8.692 0.12,0.457 0.29,1.277 0.52,2.449 0.23,1.179 0.47,2.512 0.73,4.004 0.26,1.492 0.55,3.07 0.86,4.73 0.32,1.664 0.59,3.215 0.82,4.649 0.23,1.433 0.41,2.652 0.56,3.656 0.14,1.004 0.21,1.648 0.21,1.937 0,0.403 -0.17,1.004 -0.51,1.809 -0.35,0.801 -0.82,1.59 -1.42,2.363 -0.61,0.778 -1.31,1.449 -2.11,2.024 -0.8,0.574 -1.64,0.859 -2.5,0.859 -0.4,0 -1,-0.258 -1.8,-0.773 -0.81,-0.516 -1.61,-1.161 -2.41,-1.934 -0.81,-0.777 -1.51,-1.621 -2.11,-2.539 -0.6,-0.918 -0.9,-1.75 -0.9,-2.496 -0.06,-0.805 -0.19,-2.024 -0.39,-3.66 -0.2,-1.633 -0.47,-3.496 -0.82,-5.59 -0.34,-2.098 -0.72,-4.305 -1.12,-6.629 -0.4,-2.324 -0.8,-4.574 -1.2,-6.754 -0.4,-2.18 -0.78,-4.16 -1.12,-5.937 -0.34,-1.778 -0.63,-3.157 -0.86,-4.129 -1.04,-4.364 -2.21,-7.606 -3.53,-9.727 -1.32,-2.121 -2.58,-3.383 -3.79,-3.785 -0.57,-0.172 -1.57,-0.344 -3.01,-0.516 -1.43,-0.172 -3.1,-0.343 -4.99,-0.515 -1.89,-0.172 -3.93,-0.317 -6.11,-0.43 -2.18,-0.117 -4.27,-0.219 -6.28,-0.305 -2.01,-0.086 -3.84,-0.156 -5.51,-0.215 -1.66,-0.054 -2.92,-0.085 -3.78,-0.085 -0.81,0 -1.62,-0.129 -2.46,-0.387 -0.83,-0.258 -1.58,-0.645 -2.23,-1.16 -0.66,-0.516 -1.21,-1.192 -1.64,-2.024 -0.43,-0.832 -0.64,-1.82 -0.64,-2.969 0,-0.574 0.21,-1.277 0.64,-2.109 0.43,-0.832 0.99,-1.633 1.68,-2.406 0.69,-0.778 1.48,-1.449 2.36,-2.024 0.89,-0.574 1.8,-0.863 2.72,-0.863 0.28,0 1.03,0.047 2.23,0.129 1.21,0.086 2.63,0.172 4.26,0.262 1.64,0.086 3.39,0.199 5.25,0.343 1.87,0.141 3.63,0.258 5.29,0.344 1.67,0.086 3.1,0.172 4.31,0.258 1.2,0.086 1.95,0.129 2.23,0.129 0.29,0 0.59,0.016 0.91,0.043 0.31,0.027 0.64,0.043 0.99,0.043 0.97,0 1.93,-0.145 2.88,-0.43 0.95,-0.289 1.65,-0.945 2.11,-1.98 -0.69,-5.68 -1.51,-10.914 -2.46,-15.703 -0.94,-4.789 -1.86,-9.411 -2.75,-13.856 -0.89,-4.445 -1.65,-8.82 -2.28,-13.121 -0.63,-4.305 -0.94,-8.777 -0.94,-13.426 0,-0.402 0.08,-1.176 0.25,-2.32 0.17,-1.148 0.52,-2.324 1.04,-3.531 0.51,-1.203 1.23,-2.282 2.15,-3.227 0.91,-0.945 2.09,-1.422 3.53,-1.422 0.34,0 0.93,0.231 1.76,0.692 0.83,0.457 1.68,0.988 2.54,1.59 0.86,0.605 1.62,1.218 2.28,1.851 0.66,0.633 1.02,1.117 1.07,1.465 0.12,1.203 0.19,2.277 0.22,3.223 0.03,0.949 0.04,1.882 0.04,2.8 0,0.918 -0.01,1.848 -0.04,2.793 -0.03,0.95 -0.02,2.024 0.04,3.231 0.06,2.179 0.18,4.246 0.35,6.195 0.17,1.949 0.38,3.973 0.64,6.067 0.26,2.093 0.57,4.328 0.95,6.71 0.37,2.379 0.82,5.122 1.33,8.219 0.12,0.688 0.29,1.809 0.52,3.356 0.23,1.547 0.49,3.285 0.77,5.207 0.29,1.922 0.59,3.898 0.91,5.937 0.31,2.035 0.64,3.887 0.99,5.551 0.34,1.66 0.67,3.039 0.98,4.129 0.32,1.09 0.62,1.637 0.91,1.637 4.65,0.343 9.28,0.875 13.9,1.589 4.61,0.719 9.06,1.563 13.33,2.54 4.28,0.976 8.34,2.093 12.18,3.355 3.84,1.262 7.34,2.582 10.5,3.961 2.18,0.973 4.24,2.164 6.19,3.57 0.53,0.375 0.98,0.766 1.47,1.149 -0.03,-0.598 -0.06,-1.258 -0.09,-1.836 -0.11,-2.27 -0.23,-4.348 -0.34,-6.242 -0.12,-1.891 -0.2,-3.415 -0.26,-4.559 -0.23,-3.559 -0.55,-7.543 -0.95,-11.961 -0.4,-4.418 -0.83,-8.937 -1.29,-13.555 -0.46,-4.617 -0.94,-9.191 -1.46,-13.726 -0.52,-4.531 -0.98,-8.692 -1.38,-12.477 -0.23,-1.949 -0.51,-4.058 -0.86,-6.324 -0.34,-2.266 -0.69,-4.461 -1.03,-6.582 -0.35,-2.121 -0.65,-4.031 -0.9,-5.723 -0.26,-1.691 -0.39,-2.914 -0.39,-3.66 0,-0.859 0.24,-1.734 0.73,-2.621 0.49,-0.891 1.12,-1.68 1.89,-2.367 0.78,-0.688 1.64,-1.25 2.58,-1.68 0.95,-0.43 1.88,-0.644 2.8,-0.644 0.4,0 1.15,0.3 2.24,0.902 1.09,0.602 2.12,1.652 3.1,3.145 1.78,3.265 3.86,7.097 6.23,11.484 2.39,4.391 5.04,8.766 7.96,13.125 3.33,5.047 6.92,10.012 10.76,14.887 3.85,4.875 7.6,9.25 11.27,13.121 3.67,3.875 7.06,7 10.16,9.383 3.1,2.378 5.54,3.57 7.31,3.57 0.46,0 0.88,-0.418 1.25,-1.246 0.37,-0.832 0.7,-1.91 0.99,-3.231 0.29,-1.316 0.55,-2.781 0.77,-4.386 0.24,-1.606 0.42,-3.172 0.56,-4.692 0.15,-1.519 0.28,-2.91 0.39,-4.172 0.12,-1.261 0.2,-2.211 0.26,-2.84 0.46,-4.015 1.06,-7.773 1.81,-11.273 0.74,-3.5 1.86,-6.656 3.35,-9.465 1.49,-2.812 3.55,-4.848 6.15,-6.109 2.61,-1.262 5.61,-1.895 9,-1.895 4.42,0.059 8.76,0.832 13.03,2.324 4.28,1.493 8.41,3.457 12.4,5.895 3.98,2.437 7.84,5.207 11.57,8.305 2.27,1.886 4.45,3.847 6.57,5.843 -1.2,-4.429 -1.84,-8.464 -1.84,-12.039 0,-2.582 0.48,-4.879 1.42,-6.886 0.95,-2.008 2.2,-3.7 3.75,-5.075 1.54,-1.378 3.34,-2.425 5.37,-3.144 2.04,-0.715 4.15,-1.074 6.33,-1.074 0.97,0 2.48,0.547 4.52,1.636 2.03,1.086 4.27,2.496 6.71,4.215 2.44,1.723 4.88,3.629 7.31,5.723 2.44,2.094 4.55,4.144 6.33,6.152 0.51,0.574 1.22,1.434 2.11,2.582 0.89,1.149 1.89,2.41 3.01,3.785 1.12,1.379 2.25,2.797 3.4,4.262 1.14,1.461 2.22,2.781 3.22,3.957 1.01,1.176 1.88,2.137 2.63,2.883 0.74,0.746 1.23,1.117 1.46,1.117 0.34,0 0.66,-0.328 0.95,-0.988 0.28,-0.66 0.54,-1.461 0.77,-2.41 0.23,-0.946 0.46,-1.981 0.69,-3.098 0.23,-1.117 0.49,-2.109 0.78,-2.969 0.51,-1.605 1.24,-3.152 2.19,-4.644 0.95,-1.492 2.04,-2.797 3.27,-3.918 1.23,-1.117 2.55,-2.02 3.96,-2.707 1.4,-0.692 2.82,-1.035 4.26,-1.035 3.32,0 7.07,1.062 11.23,3.183 4.16,2.121 8.33,5.078 12.52,8.864 4.01,3.613 7.99,7.445 11.91,11.488 3.85,3.957 7.54,8.324 11.08,13.078 -0.14,-1.883 -0.29,-3.813 -0.45,-5.805 -0.4,-5.851 -0.94,-10.816 -1.63,-14.886 -0.69,-4.075 -1.32,-7.633 -1.89,-10.672 -0.18,-1.09 -0.38,-2.325 -0.61,-3.7 -0.23,-1.378 -0.44,-2.769 -0.64,-4.175 -0.2,-1.407 -0.36,-2.782 -0.48,-4.129 -0.11,-1.352 -0.17,-2.539 -0.17,-3.571 0,-0.75 0.2,-1.496 0.6,-2.238 0.41,-0.746 0.98,-1.422 1.72,-2.023 0.75,-0.602 1.64,-1.09 2.67,-1.461 1.04,-0.375 2.15,-0.563 3.36,-0.563 1.32,0 2.39,0.188 3.23,0.563 0.83,0.371 1.62,1.004 2.36,1.89 0.75,0.891 1.55,2.067 2.41,3.528 0.86,1.465 2.01,3.285 3.44,5.465 0.81,1.207 2.05,2.898 3.75,5.078 1.69,2.179 3.61,4.547 5.76,7.097 2.15,2.555 4.42,5.207 6.8,7.961 2.38,2.754 4.68,5.321 6.89,7.703 2.2,2.379 4.2,4.446 5.98,6.196 1.77,1.75 3.12,2.91 4.04,3.484 0,-8.203 0.7,-15.262 2.11,-21.168 1.4,-5.91 3.47,-10.785 6.19,-14.629 2.73,-3.844 6.07,-6.672 10.03,-8.476 3.96,-1.809 8.52,-2.711 13.68,-2.711 5.11,0 9.64,0.703 13.6,2.109" /><path
         id="path34"
         style="fill:#ffffff;fill-opacity:1;fill-rule:nonzero;stroke:none"
         d="m 768.879,389.078 c -5.211,0 -9.164,-1.625 -11.863,-4.883 -2.7,-3.257 -4.047,-7.398 -4.047,-12.422 v -98.269 c 0,-33.313 -13.68,-49.973 -41.039,-49.973 -27.36,0 -41.039,16.473 -41.039,49.414 v 98.828 c 0,5.024 -1.489,9.165 -4.465,12.422 -2.977,3.258 -7.168,4.883 -12.563,4.883 -5.211,0 -9.261,-1.625 -12.144,-4.883 -2.883,-3.257 -4.328,-7.398 -4.328,-12.422 V 274.34 c 0,-24.195 5.816,-43.692 17.449,-58.485 11.633,-14.796 30.57,-22.195 56.812,-22.195 13.586,0 25.309,2.141 35.172,6.422 9.864,4.281 17.496,10.281 22.895,18.008 5.394,7.723 9.304,16.238 11.722,25.543 2.418,9.305 3.629,19.726 3.629,31.265 v 96.875 c 0,5.024 -1.394,9.165 -4.187,12.422 -2.789,3.258 -6.793,4.883 -12.004,4.883" /><path
         id="path36"
         style="fill:#ffffff;fill-opacity:1;fill-rule:nonzero;stroke:none"
         d="m 993.613,389.078 c -10.047,0 -15.074,-5.769 -15.074,-17.305 V 255.918 l -92.125,123.949 c -4.469,6.141 -9.957,9.211 -16.473,9.211 -10.421,0 -15.632,-5.859 -15.632,-17.586 V 213.48 c 0,-11.351 5.027,-17.027 15.074,-17.027 10.238,0 15.355,5.676 15.355,17.027 V 328.5 L 977.98,204.828 c 4.469,-5.586 9.493,-8.375 15.079,-8.375 4.836,0 8.701,1.582 11.581,4.746 2.89,3.164 4.33,7.258 4.33,12.281 v 158.293 c 0,11.536 -5.12,17.305 -15.357,17.305" /><path
         id="path38"
         style="fill:#ffffff;fill-opacity:1;fill-rule:nonzero;stroke:none"
         d="m 1094.96,389.078 c -5.4,0 -9.54,-1.625 -12.42,-4.883 -2.89,-3.257 -4.33,-7.398 -4.33,-12.422 V 213.48 c 0,-5.023 1.44,-9.117 4.33,-12.281 2.88,-3.164 7.02,-4.746 12.42,-4.746 5.21,0 9.31,1.582 12.28,4.746 2.98,3.164 4.47,7.258 4.47,12.281 v 158.293 c 0,5.024 -1.49,9.165 -4.47,12.422 -2.97,3.258 -7.07,4.883 -12.28,4.883" /><path
         id="path40"
         style="fill:#ffffff;fill-opacity:1;fill-rule:nonzero;stroke:none"
         d="m 1319.69,387.684 c -10.61,4.281 -18.33,-0.465 -23.17,-14.239 l -47.74,-129.535 -51.93,130.934 c -5.02,12.652 -12.74,16.84 -23.17,12.558 -5.02,-1.859 -8.09,-5.441 -9.21,-10.746 -1.12,-5.304 -0.56,-10.097 1.68,-14.375 l 64.48,-156.336 c 3.54,-8.187 8.94,-12.285 16.2,-12.285 8,0 13.68,4.281 17.03,12.844 l 61.69,158.008 c 4.84,11.914 2.89,19.636 -5.86,23.172" /><path
         id="path42"
         style="fill:#ffffff;fill-opacity:1;fill-rule:nonzero;stroke:none"
         d="m 1491.1,226.324 h -80.68 v 54.156 h 62.26 c 5.02,0 8.98,1.399 11.86,4.192 2.89,2.789 4.33,6.422 4.33,10.887 0,4.652 -1.44,8.281 -4.33,10.886 -2.88,2.606 -6.84,3.91 -11.86,3.91 h -62.26 v 48.852 h 77.89 c 4.84,0 8.7,1.352 11.59,4.051 2.88,2.695 4.33,6.277 4.33,10.746 0,4.652 -1.45,8.328 -4.33,11.027 -2.89,2.699 -6.75,4.047 -11.59,4.047 h -94.36 c -5.4,0 -9.58,-1.625 -12.56,-4.883 -2.98,-3.257 -4.47,-7.398 -4.47,-12.422 V 213.762 c 0,-5.028 1.54,-9.168 4.61,-12.422 3.07,-3.258 7.3,-4.887 12.7,-4.887 h 96.87 c 4.84,0 8.7,1.348 11.59,4.047 2.89,2.699 4.33,6.281 4.33,10.75 0,4.652 -1.44,8.324 -4.33,11.023 -2.89,2.7 -6.75,4.051 -11.59,4.051" /><path
         id="path44"
         style="fill:#ffffff;fill-opacity:1;fill-rule:nonzero;stroke:none"
         d="m 1644.65,305.746 c -6.89,-5.117 -17.5,-7.676 -31.83,-7.676 -6.88,0 -13.21,0.371 -18.98,1.118 v 59.742 c 9.31,1.117 16.38,1.672 21.22,1.672 26.61,0 39.92,-10.047 39.92,-30.149 0,-11.351 -3.45,-19.586 -10.33,-24.707 z m 10.33,-26.101 c 10.79,3.722 19.35,10.144 25.68,19.261 6.33,9.121 9.49,20.285 9.49,33.5 0,38.711 -24.1,58.071 -72.3,58.071 -16.94,0 -30.9,-1.211 -41.88,-3.633 -10.42,-2.231 -15.63,-8.653 -15.63,-19.262 V 213.48 c 0,-5.023 1.44,-9.117 4.33,-12.281 2.88,-3.164 7.02,-4.746 12.42,-4.746 5.21,0 9.31,1.582 12.28,4.746 2.98,3.164 4.47,7.258 4.47,12.281 v 60.583 c 5.02,-0.747 10.51,-1.118 16.47,-1.118 5.58,0 9.59,0.188 12,0.559 l 39.64,-65.328 c 7.08,-11.723 15.55,-14.793 25.41,-9.211 4.28,2.605 6.7,6.469 7.26,11.586 0.56,5.117 -0.84,10.191 -4.19,15.215 l -35.45,53.879" /><path
         id="path46"
         style="fill:#ffffff;fill-opacity:1;fill-rule:nonzero;stroke:none"
         d="m 1859.76,297.23 c -7.17,3.723 -14.99,7.262 -23.46,10.61 -8.46,3.351 -16.28,6.14 -23.44,8.375 -7.17,2.234 -13.17,5.445 -18.01,9.633 -4.84,4.187 -7.26,9.257 -7.26,15.215 0,13.402 9.21,20.097 27.64,20.097 10.98,0 22.43,-2.512 34.34,-7.535 13.58,-5.953 22.42,-4.934 26.52,3.07 4.84,9.493 1.58,17.309 -9.77,23.453 -13.59,7.813 -29.78,11.723 -48.58,11.723 -20.84,0 -36.71,-4.652 -47.6,-13.961 -10.89,-9.305 -16.33,-21.961 -16.33,-37.965 0,-13.027 3.35,-23.73 10.05,-32.105 6.7,-8.371 14.84,-14.469 24.43,-18.285 9.58,-3.817 19.12,-7.211 28.61,-10.192 9.5,-2.976 17.59,-6.883 24.29,-11.722 6.7,-4.84 10.05,-11.164 10.05,-18.985 0,-8.004 -3.02,-14.051 -9.07,-18.144 -6.05,-4.094 -14.28,-6.145 -24.71,-6.145 -13.03,0 -26.98,3.446 -41.87,10.332 -12.29,5.024 -20.29,3.91 -24.01,-3.351 -2.61,-4.836 -2.84,-9.586 -0.7,-14.239 2.14,-4.652 6.37,-8.652 12.7,-12.004 14.89,-7.628 32.57,-11.445 53.04,-11.445 22.9,0 40.02,5.352 51.37,16.055 11.36,10.699 17.03,25.078 17.03,43.129 0,10.609 -2.42,19.726 -7.26,27.359 -4.84,7.633 -10.84,13.309 -18,17.027" /><path
         id="path48"
         style="fill:#ffffff;fill-opacity:1;fill-rule:nonzero;stroke:none"
         d="m 1955.38,389.078 c -5.4,0 -9.54,-1.625 -12.42,-4.883 -2.89,-3.257 -4.33,-7.398 -4.33,-12.422 V 213.48 c 0,-5.023 1.44,-9.117 4.33,-12.281 2.88,-3.164 7.02,-4.746 12.42,-4.746 5.21,0 9.3,1.582 12.28,4.746 2.98,3.164 4.47,7.258 4.47,12.281 v 158.293 c 0,5.024 -1.49,9.165 -4.47,12.422 -2.98,3.258 -7.07,4.883 -12.28,4.883" /><path
         id="path50"
         style="fill:#ffffff;fill-opacity:1;fill-rule:nonzero;stroke:none"
         d="m 2169.5,389.078 h -132.33 c -4.83,0 -8.7,-1.301 -11.58,-3.906 -2.89,-2.606 -4.33,-6.234 -4.33,-10.887 0,-4.469 1.44,-8.097 4.33,-10.887 2.88,-2.796 6.75,-4.191 11.58,-4.191 h 49.42 V 213.48 c 0,-5.023 1.44,-9.117 4.32,-12.281 2.89,-3.164 7.03,-4.746 12.43,-4.746 5.39,0 9.54,1.582 12.42,4.746 2.88,3.164 4.33,7.258 4.33,12.281 v 145.727 h 49.41 c 5.03,0 8.98,1.395 11.86,4.191 2.89,2.79 4.33,6.418 4.33,10.887 0,4.653 -1.44,8.281 -4.33,10.887 -2.88,2.605 -6.83,3.906 -11.86,3.906" /><path
         id="path52"
         style="fill:#ffffff;fill-opacity:1;fill-rule:nonzero;stroke:none"
         d="m 2377.48,386.285 c -5.58,2.793 -10.32,3.258 -14.23,1.399 -3.91,-1.86 -7.45,-5.211 -10.61,-10.051 l -43.55,-67.559 -44.95,67.559 c -3.35,5.215 -7.17,8.75 -11.44,10.609 -4.28,1.86 -9.21,1.211 -14.8,-1.957 -8.93,-6.324 -9.49,-15.539 -1.68,-27.637 l 55,-78.726 v -66.16 c 0,-5.028 1.44,-9.121 4.33,-12.282 2.88,-3.167 7.03,-4.75 12.42,-4.75 5.21,0 9.31,1.583 12.28,4.75 2.98,3.161 4.47,7.254 4.47,12.282 v 67.558 l 54.16,80.961 c 2.98,4.465 4.51,8.746 4.61,12.84 0.09,4.094 -1.91,7.817 -6.01,11.164" /><path
         id="path54"
         style="fill:#ffffff;fill-opacity:1;fill-rule:nonzero;stroke:none"
         d="m 2160.57,544.223 c -0.75,-2.578 -1.74,-5.203 -2.95,-7.871 -1.22,-2.668 -2.57,-5.274 -4.05,-7.825 -1.48,-2.55 -2.94,-4.898 -4.39,-7.047 -1.33,-2.027 -3.04,-4.156 -5.13,-6.386 -2.09,-2.235 -4.22,-4.309 -6.39,-6.219 -2.18,-1.914 -4.22,-3.496 -6.13,-4.742 -1.91,-1.246 -3.37,-1.867 -4.35,-1.867 -2.9,0 -4.87,0.824 -5.91,2.48 -1.05,1.649 -1.57,3.836 -1.57,6.563 0,1.855 0.32,3.957 0.96,6.304 0.64,2.348 1.49,4.813 2.56,7.395 1.08,2.574 2.31,5.226 3.7,7.953 1.39,2.723 2.85,5.391 4.39,8 1.54,2.609 3.07,5.102 4.61,7.48 1.54,2.375 3,4.489 4.39,6.348 0.7,0.984 1.59,2 2.7,3.043 1.1,1.043 2.31,2 3.65,2.871 1.33,0.867 2.74,1.578 4.22,2.129 1.47,0.551 2.94,0.828 4.39,0.828 1.68,0 3.17,-0.957 4.48,-2.871 1.3,-1.914 1.95,-5.043 1.95,-9.391 0,-2.207 -0.37,-4.597 -1.13,-7.175 z m 46.52,-28.653 c -0.46,0 -0.92,-0.32 -1.39,-0.957 -0.46,-0.64 -1.01,-1.363 -1.65,-2.172 -2.2,-2.957 -4.71,-5.191 -7.52,-6.699 -2.81,-1.508 -6.42,-2.258 -10.83,-2.258 -1.85,0 -3.6,0.434 -5.26,1.301 -1.65,0.871 -3.09,2.449 -4.3,4.742 -1.22,2.289 -2.18,5.403 -2.87,9.348 -0.7,3.941 -1.04,9.012 -1.04,15.219 0,2.199 0.2,4.636 0.6,7.304 0.41,2.665 0.86,5.231 1.35,7.696 0.49,2.465 0.94,4.621 1.35,6.476 0.28,1.305 0.43,2.18 0.52,2.852 l 0.01,-0.004 c 0,0 0.04,0.246 0.06,0.648 l 0.02,0.157 -0.01,0.082 c 0.08,2.492 -0.49,9.761 -9.04,15.222 -5.09,3.254 -11.68,1.953 -17.12,-0.234 -1.56,-0.359 -3.39,-1.152 -5.53,-2.418 -1.08,-0.637 -2.2,-1.453 -3.32,-2.258 -0.46,-0.312 -0.83,-0.558 -1.05,-0.719 -0.1,-0.074 -0.19,-0.132 -0.29,-0.207 l -0.01,-0.007 v -0.004 c -1.55,-1.188 -3.14,-2.524 -4.76,-4.024 -3.31,-3.043 -6.56,-6.582 -9.74,-10.605 -3.19,-4.031 -5.95,-8.309 -8.26,-12.828 -2.09,-4 -3.85,-7.68 -5.26,-11.043 -1.43,-3.364 -2.59,-6.481 -3.48,-9.348 -0.9,-2.871 -1.54,-5.555 -1.92,-8.043 -0.37,-2.496 -0.56,-4.871 -0.56,-7.133 0,-2.261 0.38,-4.406 1.13,-6.433 0.75,-2.032 1.78,-3.828 3.09,-5.395 1.3,-1.562 2.81,-2.808 4.52,-3.738 1.71,-0.926 3.49,-1.391 5.35,-1.391 2.78,0 5.98,0.914 9.61,2.742 3.62,1.825 7.3,4.2 11.04,7.129 3.74,2.926 7.36,6.215 10.87,9.871 3.5,3.649 6.53,7.332 9.09,11.043 0.75,-4 1.72,-7.8 2.91,-11.39 1.19,-3.598 2.69,-6.742 4.52,-9.438 1.83,-2.695 4,-4.828 6.52,-6.39 2.52,-1.567 5.53,-2.348 9,-2.348 2.67,0 5.25,0.492 7.74,1.477 2.49,0.984 4.8,2.246 6.91,3.785 2.12,1.535 4.03,3.246 5.74,5.129 1.71,1.882 3.09,3.722 4.13,5.523 0.82,1.219 1.41,2.418 1.79,3.606 0.37,1.191 0.56,2.246 0.56,3.175 0,0.696 -0.33,1.36 -1,2 -0.66,0.637 -1.4,0.957 -2.22,0.957" /></g></g></svg>